# xmcd
#
# Track frame offsets:
#	182
#	24277
#	39370
#	52022
#	67817
#	81645
#	98905
#	112845
#	130575
#	146735
#
# Disc length: 2125 seconds
# Revision: 12
# Processed by: cddbd v1.5.2PL0 Copyright (c) Steve Scherf et al.
# Submitted via: dBpowerAMP V12.0
#
DISCID=7e084b0a
DTITLE=Dwight Yoakam - Just Lookin’ for a Hit
DYEAR=1989
DGENRE=Country
TTITLE0=Long White Cadillac
TTITLE1=Little Ways
TTITLE2=Honky Tonk Man
TTITLE3=I Got You
TTITLE4=Little Sister
TTITLE5=I Sang Dixie
TTITLE6=Guitars, Cadillacs
TTITLE7=Sin City
TTITLE8=Please, Please Baby
TTITLE9=Streets of Bakersfield
EXTD=
EXTT0=
EXTT1=
EXTT2=
EXTT3=
EXTT4=
EXTT5=
EXTT6=
EXTT7=
EXTT8=
EXTT9=
PLAYORDER=
